<svg xmlns="http://www.w3.org/2000/svg" version="1.1" xmlns:xlink="http://www.w3.org/1999/xlink" xmlns:svgjs="http://svgjs.com/svgjs" width="512" height="512" x="0" y="0" viewBox="0 0 60 60" style="enable-background:new 0 0 512 512" xml:space="preserve"><g><path d="M15 27a1 1 0 0 0 1-1v-1a1 1 0 0 0-2 0v1a1 1 0 0 0 1 1ZM15 29a1 1 0 0 0-1 1v1a1 1 0 0 0 2 0v-1a1 1 0 0 0-1-1ZM17 29h1a1 1 0 0 0 0-2h-1a1 1 0 0 0 0 2ZM12 27a1 1 0 0 0 0 2h1a1 1 0 0 0 0-2ZM9.293 22.707a1 1 0 0 0 1.414 0l.293-.293.293.293a1 1 0 0 0 1.414-1.414L12.414 21l.293-.293a1 1 0 0 0-1.414-1.414l-.293.293-.293-.293a1 1 0 0 0-1.414 1.414l.293.293-.293.293a1 1 0 0 0 0 1.414Z" fill="#FFFFFF" data-original="#000000" opacity="1"></path><path d="M60 42.5a6.505 6.505 0 0 0-4.277-6.1c.6-1.362.176-3.426-1.3-6.181A39.14 39.14 0 0 0 56 19a39.14 39.14 0 0 0-1.572-11.219C56.22 4.425 56.48 2.076 55.2.8c-1.72-1.725-5.135-.333-7.837 1.249A68.4 68.4 0 0 0 30 0a68.4 68.4 0 0 0-17.363 2.049C9.934.467 6.517-.925 4.8.8c-1.28 1.276-1.02 3.625.772 6.981A39.14 39.14 0 0 0 4 19a39.14 39.14 0 0 0 1.572 11.219C3.78 33.575 3.52 35.924 4.8 37.2a2.541 2.541 0 0 0 .933.585A11.988 11.988 0 0 0 12 60h41.5a6.5 6.5 0 0 0 3.461-12A6.5 6.5 0 0 0 60 42.5ZM7.536 7.205C5.976 4.4 5.747 2.677 6.212 2.212c.518-.518 2.544-.181 5.767 1.773a1 1 0 0 0 .8.1 53.2 53.2 0 0 1 9.773-1.736C19.927 3.838 17.58 6 17.02 8.8a1 1 0 0 0 .78 1.18.948.948 0 0 0 .2.02 1 1 0 0 0 .979-.8C19.847 4.868 27.237 2 30 2a65.118 65.118 0 0 1 17.217 2.089 1 1 0 0 0 .8-.1c3.225-1.956 5.249-2.291 5.767-1.773.465.465.236 2.189-1.324 4.993a1 1 0 0 0-.067.827A34.552 34.552 0 0 1 54 19a34.552 34.552 0 0 1-1.6 10.968 1 1 0 0 0 .067.827c1.56 2.8 1.789 4.528 1.324 4.993a.961.961 0 0 1-.641.212h-.094c-.952.008-2.668-.549-5.035-1.985a1 1 0 0 0-.519-.145 1.028 1.028 0 0 0-.285.041 53.2 53.2 0 0 1-9.773 1.736C40.073 34.162 42.42 32 42.98 29.2a1 1 0 1 0-1.96-.392C40.153 33.132 32.763 36 30 36a65.118 65.118 0 0 1-17.217-2.089 1 1 0 0 0-.8.1c-3.229 1.958-5.255 2.289-5.771 1.777-.465-.465-.236-2.189 1.324-4.993a1 1 0 0 0 .067-.827A34.552 34.552 0 0 1 6 19 34.552 34.552 0 0 1 7.6 8.032a1 1 0 0 0-.064-.827ZM47.449 36h-.277c.061-.017.13-.032.191-.049l.086.049Zm-34.621 0h-.277l.086-.049c.063.017.13.032.191.049ZM53.5 47H15a1 1 0 0 0 0 2h38.5a4.5 4.5 0 0 1 0 9H12a10 10 0 0 1 0-20h41.5a4.5 4.5 0 0 1 0 9Z" fill="#FFFFFF" data-original="#000000" opacity="1"></path><path d="M11 47H9a1 1 0 0 0 0 2h2a1 1 0 0 0 0-2Z" fill="#FFFFFF" data-original="#000000" opacity="1"></path></g></svg>







