<svg width="60" height="60" viewBox="0 0 60 60" fill="none" xmlns="http://www.w3.org/2000/svg">
<path d="M15 26.9999C15.2652 26.9999 15.5196 26.8946 15.7071 26.707C15.8946 26.5195 16 26.2651 16 25.9999V24.9999C16 24.7347 15.8946 24.4803 15.7071 24.2928C15.5196 24.1053 15.2652 23.9999 15 23.9999C14.7348 23.9999 14.4804 24.1053 14.2929 24.2928C14.1054 24.4803 14 24.7347 14 24.9999V25.9999C14 26.2651 14.1054 26.5195 14.2929 26.707C14.4804 26.8946 14.7348 26.9999 15 26.9999ZM15 28.9999C14.7348 28.9999 14.4804 29.1053 14.2929 29.2928C14.1054 29.4803 14 29.7347 14 29.9999V30.9999C14 31.2651 14.1054 31.5195 14.2929 31.707C14.4804 31.8946 14.7348 31.9999 15 31.9999C15.2652 31.9999 15.5196 31.8946 15.7071 31.707C15.8946 31.5195 16 31.2651 16 30.9999V29.9999C16 29.7347 15.8946 29.4803 15.7071 29.2928C15.5196 29.1053 15.2652 28.9999 15 28.9999ZM17 28.9999H18C18.2652 28.9999 18.5196 28.8946 18.7071 28.707C18.8946 28.5195 19 28.2651 19 27.9999C19 27.7347 18.8946 27.4803 18.7071 27.2928C18.5196 27.1053 18.2652 26.9999 18 26.9999H17C16.7348 26.9999 16.4804 27.1053 16.2929 27.2928C16.1054 27.4803 16 27.7347 16 27.9999C16 28.2651 16.1054 28.5195 16.2929 28.707C16.4804 28.8946 16.7348 28.9999 17 28.9999ZM12 26.9999C11.7348 26.9999 11.4804 27.1053 11.2929 27.2928C11.1054 27.4803 11 27.7347 11 27.9999C11 28.2651 11.1054 28.5195 11.2929 28.707C11.4804 28.8946 11.7348 28.9999 12 28.9999H13C13.2652 28.9999 13.5196 28.8946 13.7071 28.707C13.8946 28.5195 14 28.2651 14 27.9999C14 27.7347 13.8946 27.4803 13.7071 27.2928C13.5196 27.1053 13.2652 26.9999 13 26.9999H12ZM9.293 22.7069C9.48053 22.8944 9.73484 22.9997 10 22.9997C10.2652 22.9997 10.5195 22.8944 10.707 22.7069L11 22.4139L11.293 22.7069C11.4816 22.8891 11.7342 22.9899 11.9964 22.9876C12.2586 22.9853 12.5094 22.8801 12.6948 22.6947C12.8802 22.5093 12.9854 22.2585 12.9877 21.9963C12.99 21.7341 12.8892 21.4815 12.707 21.2929L12.414 20.9999L12.707 20.7069C12.8892 20.5183 12.99 20.2657 12.9877 20.0035C12.9854 19.7413 12.8802 19.4905 12.6948 19.3051C12.5094 19.1197 12.2586 19.0145 11.9964 19.0122C11.7342 19.01 11.4816 19.1108 11.293 19.2929L11 19.5859L10.707 19.2929C10.5184 19.1108 10.2658 19.01 10.0036 19.0122C9.7414 19.0145 9.49059 19.1197 9.30518 19.3051C9.11977 19.4905 9.0146 19.7413 9.01233 20.0035C9.01005 20.2657 9.11084 20.5183 9.293 20.7069L9.586 20.9999L9.293 21.2929C9.10553 21.4804 9.00021 21.7348 9.00021 21.9999C9.00021 22.2651 9.10553 22.5194 9.293 22.7069Z" fill="white"/>
<path d="M60 42.5C59.9976 41.1676 59.5862 39.868 58.8212 38.7771C58.0563 37.6861 56.9748 36.8564 55.723 36.4C56.323 35.038 55.899 32.974 54.423 30.219C55.49 26.5756 56.0212 22.7964 56 19C56.0228 15.2039 55.4933 11.4246 54.428 7.781C56.22 4.425 56.48 2.076 55.2 0.8C53.48 -0.925 50.065 0.467 47.363 2.049C41.6868 0.626084 35.8515 -0.0625397 30 1.44355e-07C24.1485 -0.0625397 18.3132 0.626084 12.637 2.049C9.934 0.467 6.517 -0.925 4.8 0.8C3.52 2.076 3.78 4.425 5.572 7.781C4.50671 11.4246 3.97716 15.2039 4 19C3.97716 22.7961 4.50671 26.5754 5.572 30.219C3.78 33.575 3.52 35.924 4.8 37.2C5.0645 37.4609 5.38298 37.6605 5.733 37.785C3.50292 39.1489 1.77976 41.2043 0.826015 43.6382C-0.127732 46.0721 -0.259791 48.751 0.449957 51.2669C1.1597 53.7828 2.67235 55.9977 4.75748 57.5743C6.84261 59.1509 9.38592 60.0027 12 60H53.5C54.9092 59.9993 56.28 59.5407 57.4059 58.6932C58.5318 57.8457 59.3518 56.6553 59.7423 55.3013C60.1329 53.9473 60.0728 52.503 59.5711 51.1861C59.0695 49.8692 58.1534 48.751 56.961 48C57.8912 47.4149 58.6578 46.6035 59.1893 45.6416C59.7207 44.6798 59.9997 43.5989 60 42.5ZM7.536 7.205C5.976 4.4 5.747 2.677 6.212 2.212C6.73 1.694 8.756 2.031 11.979 3.985C12.0981 4.05628 12.2307 4.10198 12.3685 4.11919C12.5062 4.13641 12.646 4.12477 12.779 4.085C15.9754 3.20303 19.2474 2.62183 22.552 2.349C19.927 3.838 17.58 6 17.02 8.8C16.9937 8.9287 16.993 9.06131 17.018 9.19027C17.043 9.31923 17.0931 9.44201 17.1655 9.55159C17.238 9.66117 17.3313 9.75541 17.4402 9.82891C17.549 9.90242 17.6713 9.95376 17.8 9.98C17.8658 9.99374 17.9328 10.0004 18 10C18.2304 9.99982 18.4536 9.92011 18.632 9.77435C18.8103 9.62858 18.9329 9.42571 18.979 9.2C19.847 4.868 27.237 2 30 2C35.8065 1.92555 41.5968 2.62811 47.217 4.089C47.35 4.12877 47.4898 4.14041 47.6275 4.1232C47.7653 4.10598 47.8979 4.06028 48.017 3.989C51.242 2.033 53.266 1.698 53.784 2.216C54.249 2.681 54.02 4.405 52.46 7.209C52.3903 7.33402 52.3482 7.47255 52.3367 7.61522C52.3251 7.7579 52.3443 7.90139 52.393 8.036C53.515 11.5804 54.0577 15.2827 54 19C54.0604 22.7183 53.5201 26.4219 52.4 29.968C52.3513 30.1026 52.3321 30.2461 52.3437 30.3888C52.3552 30.5315 52.3973 30.67 52.467 30.795C54.027 33.595 54.256 35.323 53.791 35.788C53.61 35.9339 53.3823 36.0092 53.15 36H53.056C52.104 36.008 50.388 35.451 48.021 34.015C47.8645 33.9201 47.685 33.8699 47.502 33.87C47.4056 33.8702 47.3096 33.884 47.217 33.911C44.0206 34.793 40.7487 35.3742 37.444 35.647C40.073 34.162 42.42 32 42.98 29.2C43.0108 29.0694 43.0151 28.9339 42.9924 28.8016C42.9698 28.6693 42.9207 28.5429 42.8482 28.43C42.7757 28.317 42.6812 28.2198 42.5703 28.1442C42.4594 28.0686 42.3345 28.016 42.2029 27.9897C42.0713 27.9634 41.9357 27.9638 41.8043 27.991C41.6728 28.0182 41.5482 28.0715 41.4378 28.1479C41.3274 28.2242 41.2336 28.322 41.1618 28.4355C41.09 28.5489 41.0418 28.6756 41.02 28.808C40.153 33.132 32.763 36 30 36C24.1935 36.0745 18.4032 35.3719 12.783 33.911C12.65 33.8712 12.5102 33.8596 12.3725 33.8768C12.2347 33.894 12.1021 33.9397 11.983 34.011C8.754 35.969 6.728 36.3 6.212 35.788C5.747 35.323 5.976 33.599 7.536 30.795C7.60571 30.67 7.64776 30.5315 7.65932 30.3888C7.67088 30.2461 7.65167 30.1026 7.603 29.968C6.48189 26.4221 5.94059 22.7184 6 19C5.93962 15.2817 6.47991 11.5781 7.6 8.032C7.64912 7.8976 7.66883 7.75422 7.65779 7.61155C7.64675 7.46888 7.60522 7.33024 7.536 7.205ZM47.449 36H47.172C47.233 35.983 47.302 35.968 47.363 35.951L47.449 36ZM12.828 36H12.551L12.637 35.951C12.7 35.968 12.767 35.983 12.828 36ZM53.5 47H15C14.7348 47 14.4804 47.1054 14.2929 47.2929C14.1054 47.4804 14 47.7348 14 48C14 48.2652 14.1054 48.5196 14.2929 48.7071C14.4804 48.8946 14.7348 49 15 49H53.5C54.6935 49 55.8381 49.4741 56.682 50.318C57.5259 51.1619 58 52.3065 58 53.5C58 54.6935 57.5259 55.8381 56.682 56.682C55.8381 57.5259 54.6935 58 53.5 58H12C9.34784 58 6.8043 56.9464 4.92893 55.0711C3.05357 53.1957 2 50.6522 2 48C2 45.3478 3.05357 42.8043 4.92893 40.9289C6.8043 39.0536 9.34784 38 12 38H53.5C54.6935 38 55.8381 38.4741 56.682 39.318C57.5259 40.1619 58 41.3065 58 42.5C58 43.6935 57.5259 44.8381 56.682 45.682C55.8381 46.5259 54.6935 47 53.5 47Z" fill="white"/>
<path d="M11 47H9C8.73478 47 8.48043 47.1054 8.29289 47.2929C8.10536 47.4804 8 47.7348 8 48C8 48.2652 8.10536 48.5196 8.29289 48.7071C8.48043 48.8946 8.73478 49 9 49H11C11.2652 49 11.5196 48.8946 11.7071 48.7071C11.8946 48.5196 12 48.2652 12 48C12 47.7348 11.8946 47.4804 11.7071 47.2929C11.5196 47.1054 11.2652 47 11 47Z" fill="white"/>
</svg>
