<svg width="52" height="59" viewBox="0 0 52 59" fill="none" xmlns="http://www.w3.org/2000/svg">
<path fill-rule="evenodd" clip-rule="evenodd" d="M32.2363 35.9401C32.3041 36.0975 32.4136 36.2334 32.5532 36.3328C32.6927 36.4323 32.8569 36.4916 33.0278 36.5044C33.1987 36.5171 33.3698 36.4827 33.5225 36.405C33.6752 36.3273 33.8037 36.2092 33.894 36.0635L36.1655 32.4031L40.3857 33.2674C40.5535 33.3017 40.7275 33.2894 40.8889 33.2318C41.0502 33.1742 41.1927 33.0735 41.3008 32.9406C41.409 32.8077 41.4787 32.6478 41.5023 32.4781C41.5259 32.3084 41.5026 32.1355 41.4349 31.9781L38.3008 24.7012C38.3966 24.6606 38.4947 24.6187 38.5981 24.5746C40.2143 23.8824 41.1599 22.2444 40.9513 20.4987C40.9125 20.1744 40.8763 19.8859 40.8439 19.6269C40.7137 18.588 40.6481 18.0665 40.7185 17.6681C40.7888 17.2697 41.0285 16.802 41.5063 15.8703C41.6255 15.638 41.7581 15.3793 41.9055 15.0878C42.6987 13.5186 42.3702 11.6559 41.0882 10.4529C40.8502 10.2294 40.6369 10.0317 40.4456 9.85405C39.678 9.14202 39.2926 8.7846 39.0905 8.4342C38.8881 8.08381 38.7713 7.57147 38.5384 6.55077C38.4803 6.29624 38.4156 6.01264 38.3411 5.69459C37.9401 3.98272 36.4912 2.76702 34.7357 2.6694C34.4097 2.65124 34.1193 2.63682 33.8585 2.62381C32.8128 2.57178 32.2879 2.54565 31.9077 2.40725C31.5276 2.26885 31.1087 1.95151 30.2741 1.31916C30.0409 1.14212 29.8072 0.965788 29.5729 0.790181C28.1652 -0.263335 26.274 -0.263452 24.8664 0.790181C24.6321 0.965788 24.3983 1.14212 24.1651 1.31916C23.3305 1.95151 22.9117 2.26885 22.5315 2.40725C22.1514 2.54565 21.6264 2.57178 20.5807 2.62381C20.3199 2.63682 20.0296 2.65124 19.7036 2.6694C17.9481 2.76702 16.4991 3.98284 16.0982 5.69459C16.0237 6.01264 15.959 6.29612 15.9008 6.55077C15.668 7.57147 15.5512 8.08393 15.3488 8.4342C15.1465 8.7846 14.7612 9.14202 13.9936 9.85405C13.8023 10.0317 13.5891 10.2294 13.3511 10.4529C12.0692 11.656 11.7406 13.5187 12.5337 15.0879C12.681 15.3792 12.8137 15.6378 12.9327 15.8701C13.4105 16.8019 13.6504 17.2696 13.7207 17.668C13.791 18.0663 13.7255 18.5878 13.5953 19.6265C13.5628 19.8856 13.5266 20.1743 13.4878 20.4987C13.2792 22.2444 14.2248 23.8824 15.8411 24.5746C16.1413 24.7031 16.4092 24.8161 16.6498 24.9174L16.86 25.0062L13.0155 33.2637C12.9432 33.419 12.9148 33.5912 12.9335 33.7615C12.9521 33.9318 13.0171 34.0937 13.1213 34.2298C13.2255 34.3658 13.365 34.4707 13.5246 34.5329C13.6843 34.5952 13.858 34.6125 14.0268 34.5828L18.2705 33.8414L20.4348 37.566C20.5209 37.7141 20.6459 37.8358 20.7963 37.9179C20.9467 38 21.1168 38.0393 21.2879 38.0315C21.4591 38.0238 21.6249 37.9692 21.7672 37.8739C21.9096 37.7785 22.0231 37.6459 22.0954 37.4906L25.9214 29.2724C26.5353 29.0879 26.9073 28.995 27.2199 28.995C27.6244 28.995 28.1267 29.1499 29.1272 29.4587C29.243 29.4944 29.3656 29.5323 29.4941 29.5717L32.2363 35.9401ZM35.9015 30.4351C35.7137 30.3967 35.5186 30.4168 35.3425 30.4926C35.1665 30.5684 35.0179 30.6964 34.9167 30.8592L33.2479 33.5487L31.6546 29.8492C32.7482 29.6974 33.7491 29.0846 34.3889 28.1061C34.5676 27.8327 34.7254 27.5885 34.8671 27.3691C35.4351 26.4895 35.7201 26.0481 36.03 25.7879C36.1691 25.6712 36.3438 25.5657 36.5808 25.4482L39.0021 31.07L35.9015 30.4351ZM21.1528 35.0709L19.5627 32.3344C19.4664 32.1687 19.3215 32.0364 19.1478 31.9556C18.974 31.8747 18.7796 31.849 18.5908 31.8819L15.4729 32.4266L18.5172 25.888C18.7892 26.1582 19.0702 26.593 19.5714 27.3692C19.73 27.6153 19.8894 27.861 20.0495 28.1061C20.8405 29.3158 22.1827 29.9675 23.5702 29.8787L21.1528 35.0709ZM27.2192 27.119C26.5812 27.119 25.943 27.3017 24.7589 27.6671C24.4827 27.7526 24.2063 27.8373 23.9296 27.9211C23.037 28.1906 22.1295 27.8608 21.6187 27.0799C21.4421 26.81 21.2863 26.5687 21.1465 26.3522C19.802 24.2702 19.6612 24.1521 17.3773 23.1896C17.1397 23.0896 16.8751 22.978 16.5787 22.851C15.721 22.4836 15.2383 21.6476 15.349 20.7211C15.3873 20.4008 15.4231 20.1157 15.4552 19.8599C15.7635 17.401 15.7315 17.2199 14.6005 15.0144C14.4684 14.7573 14.3371 14.4998 14.2065 14.2419C13.7856 13.4092 13.9533 12.4585 14.6337 11.82C14.8689 11.5993 15.0794 11.4041 15.2684 11.2287C17.0854 9.54315 17.1772 9.38389 17.7285 6.96784C17.7858 6.71635 17.8497 6.43639 17.9233 6.12221C18.136 5.21377 18.8755 4.59327 19.8072 4.54147C20.1292 4.52354 20.416 4.50924 20.6735 4.49647C23.1488 4.37319 23.3217 4.31026 25.2971 2.81366C25.5026 2.65791 25.7315 2.48448 25.9896 2.29124C26.7367 1.73213 27.7019 1.73213 28.4489 2.29124C28.7071 2.48448 28.936 2.65791 29.1415 2.81366C31.1168 4.31026 31.2898 4.37319 33.765 4.49647C34.0225 4.50924 34.3094 4.52354 34.6314 4.54147C35.563 4.59327 36.3025 5.21377 36.5153 6.12221C36.5889 6.43627 36.6528 6.71624 36.7101 6.96772C37.2613 9.38377 37.3532 9.54315 39.1702 11.2285C39.3592 11.404 39.5697 11.5992 39.8049 11.8199C40.4853 12.4584 40.6527 13.409 40.2319 14.2418C40.1013 14.4998 39.9699 14.7574 39.8377 15.0146C38.7069 17.2199 38.6749 17.401 38.9834 19.8601C39.0154 20.1159 39.0512 20.4008 39.0894 20.721C39.2002 21.6474 38.7175 22.4836 37.8598 22.8508C37.5633 22.9778 37.2987 23.0893 37.0612 23.1895C34.7774 24.152 34.6365 24.2702 33.2921 26.3521C33.1355 26.5952 32.9781 26.8378 32.8199 27.0799C32.3093 27.8607 31.4025 28.1911 30.509 27.9211C30.2003 27.8278 29.926 27.7431 29.6796 27.6671C28.4953 27.3017 27.8571 27.119 27.2192 27.119ZM36.5235 14.943C36.5235 9.81256 32.3496 5.6387 27.2192 5.6387C22.0888 5.6387 17.9149 9.81256 17.9149 14.943C17.9149 20.0735 22.0888 24.2475 27.2192 24.2475C32.3495 24.2475 36.5235 20.0736 36.5235 14.943ZM27.219 22.3725C23.1225 22.3725 19.7898 19.0397 19.7898 14.943C19.7898 10.8465 23.1225 7.5137 27.219 7.5137C31.3156 7.5137 34.6484 10.8465 34.6484 14.943C34.6485 19.0397 31.3156 22.3725 27.219 22.3725ZM32.368 12.7325L25.9662 18.5423C25.7939 18.6991 25.5693 18.7858 25.3363 18.7856C25.2132 18.7858 25.0912 18.7616 24.9774 18.7145C24.8636 18.6673 24.7603 18.5982 24.6733 18.511L22.0375 15.8753C21.9496 15.7884 21.8797 15.685 21.8319 15.571C21.7841 15.4571 21.7593 15.3348 21.7589 15.2112C21.7585 15.0876 21.7826 14.9651 21.8297 14.8509C21.8769 14.7366 21.9461 14.6328 22.0335 14.5454C22.1209 14.458 22.2247 14.3888 22.339 14.3417C22.4532 14.2945 22.5757 14.2705 22.6993 14.2709C22.8229 14.2712 22.9452 14.2961 23.0591 14.3439C23.1731 14.3917 23.2765 14.4616 23.3633 14.5495L25.3676 16.5538L31.108 11.3442C31.2927 11.1809 31.5343 11.0969 31.7805 11.1105C32.0266 11.124 32.2576 11.2339 32.4232 11.4165C32.5889 11.599 32.676 11.8395 32.6657 12.0858C32.6554 12.3322 32.5484 12.5645 32.368 12.7325ZM50.1659 43.4492C51.4016 42.2137 52.0292 40.655 51.9808 38.9416L51.5242 22.8245C51.4792 21.233 49.8969 19.8069 48.1908 19.8069C48.1744 19.8069 48.1581 19.807 48.1418 19.8072C47.3094 19.8206 44.5955 20.269 44.6152 25.4783L44.6486 34.2333C44.6497 34.4286 44.637 34.6238 44.6107 34.8173C44.5434 34.737 44.4726 34.6597 44.3984 34.5856C43.2413 33.4287 41.3464 33.414 40.0842 34.5522C40.0528 34.5805 40.0233 34.6108 39.9961 34.6431C38.5839 36.3128 36.8487 37.7753 35.4543 38.9503C34.9653 39.3624 34.5035 39.7516 34.1243 40.0933C32.5342 41.5266 32.322 43.5013 32.3241 45.2439L32.3316 51.4789L31.5231 51.472C30.9757 51.467 30.4599 51.6766 30.0685 52.0612C29.6771 52.446 29.4589 52.959 29.4542 53.5057L29.4332 55.9446C29.4285 56.4913 29.6378 57.008 30.0225 57.3994C30.4071 57.7908 30.9202 58.0089 31.4669 58.0135L44.1367 58.1224L44.1546 58.1225C44.6946 58.1225 45.2043 57.9136 45.5914 57.5331C45.9828 57.1483 46.2008 56.6354 46.2055 56.0887L46.2265 53.6498C46.2312 53.1031 46.0219 52.5865 45.6372 52.1951C45.2526 51.8037 44.7395 51.5856 44.1928 51.5809L43.1505 51.572V50.4647L50.1659 43.4492ZM44.3515 53.6338L44.3305 56.0727C44.3301 56.1315 44.3011 56.1723 44.2769 56.1961C44.2609 56.2128 44.2416 56.226 44.2202 56.2349C44.1988 56.2438 44.1758 56.2481 44.1526 56.2476L31.4828 56.1388C31.4241 56.1383 31.3833 56.1094 31.3595 56.0851C31.3357 56.0608 31.3075 56.0197 31.3081 55.9609L31.329 53.522C31.3295 53.4631 31.3585 53.4224 31.3827 53.3986C31.4066 53.375 31.4474 53.347 31.5052 53.347H31.5069L44.1768 53.4559C44.2234 53.4569 44.2677 53.4761 44.3003 53.5093C44.333 53.5425 44.3513 53.5872 44.3515 53.6338ZM34.2066 51.4952L34.1991 45.2417C34.1967 43.3322 34.5388 42.2442 35.3797 41.4862C35.7356 41.1654 36.1651 40.8034 36.6625 40.3843C38.0959 39.1761 39.8766 37.6755 41.3814 35.9087C41.9077 35.4673 42.6262 35.4653 43.0725 35.9116C43.5476 36.3866 43.5482 36.9517 43.0765 37.5913C42.3311 38.4292 41.5473 39.1882 40.718 39.9907C40.3199 40.376 39.9081 40.7744 39.4928 41.1899C39.4057 41.2769 39.3367 41.3803 39.2896 41.494C39.2425 41.6077 39.2182 41.7297 39.2183 41.8528C39.2183 41.9759 39.2425 42.0978 39.2897 42.2115C39.3368 42.3252 39.4058 42.4286 39.4929 42.5156C39.676 42.6987 39.9157 42.7902 40.1557 42.7902C40.3957 42.7902 40.6357 42.6987 40.8187 42.5155C41.2231 42.1111 41.6291 41.718 42.0219 41.338C42.8884 40.4995 43.7067 39.7076 44.5084 38.8031C44.5126 38.7983 45.1363 38.0354 45.1363 38.0354C46.0751 36.8797 46.5289 35.6337 46.5236 34.2264L46.4902 25.4713C46.4814 23.1508 47.1258 21.6989 48.1718 21.6821L48.1908 21.682C48.887 21.682 49.6334 22.2908 49.6499 22.8777L50.1065 38.9948C50.1405 40.1967 49.7144 41.2494 48.84 42.1235L41.55 49.4135C41.3742 49.5893 41.2755 49.8277 41.2755 50.0763V51.5559L34.2066 51.4952ZM32.2309 54.4754C32.2667 54.3815 32.3208 54.2957 32.39 54.2229C32.4592 54.1501 32.5423 54.0918 32.6342 54.0514C32.7262 54.0109 32.8253 53.9892 32.9257 53.9874C33.0262 53.9856 33.126 54.0038 33.2193 54.0409C33.3127 54.0781 33.3977 54.1334 33.4695 54.2037C33.5413 54.274 33.5984 54.3578 33.6375 54.4504C33.6766 54.5429 33.6969 54.6423 33.6972 54.7428C33.6975 54.8432 33.6779 54.9428 33.6394 55.0356C33.5631 55.2195 33.4176 55.366 33.2341 55.4435C33.0507 55.521 32.8441 55.5232 32.6591 55.4496C32.4741 55.376 32.3255 55.2326 32.2453 55.0503C32.1652 54.868 32.16 54.6615 32.2309 54.4754ZM21.9148 52.0615C21.7232 51.872 21.4961 51.7224 21.2464 51.6213C20.9967 51.5202 20.7294 51.4695 20.46 51.4722L19.6517 51.4792L19.6592 45.2441C19.6613 43.5014 19.449 41.5267 17.8589 40.0936C17.4799 39.7517 17.018 39.3627 16.5291 38.9506C15.1348 37.7755 13.3995 36.313 11.9873 34.6433C11.96 34.611 11.9306 34.5807 11.8992 34.5525C10.6365 33.4142 8.74151 33.429 7.58498 34.5859C7.51078 34.6599 7.43993 34.7372 7.37264 34.8176C7.34627 34.6241 7.33362 34.4289 7.33479 34.2336L7.36819 25.4784C7.38788 20.2691 4.67393 19.8208 3.84155 19.8074C3.82522 19.8071 3.80889 19.807 3.79256 19.807C2.08643 19.807 0.504048 21.2332 0.459165 22.8246L0.00260219 38.9419C-0.0457962 40.6553 0.581743 42.2139 1.81737 43.4494L8.8328 50.4649V51.5722L7.79041 51.5811C7.24373 51.5858 6.73069 51.8039 6.34608 52.1953C5.96135 52.5867 5.75206 53.1034 5.75674 53.6501L5.77772 56.089C5.78241 56.6356 6.00049 57.1486 6.3919 57.5333C6.77897 57.9138 7.2885 58.1228 7.82862 58.1228L7.84655 58.1226L20.5164 58.0138C21.0631 58.0091 21.5761 57.791 21.9607 57.3996C22.3455 57.0082 22.5548 56.4915 22.5501 55.9448L22.5291 53.5059C22.5245 52.9592 22.3062 52.4462 21.9148 52.0615ZM10.7078 50.0763C10.7078 49.9532 10.6836 49.8313 10.6364 49.7176C10.5893 49.6039 10.5203 49.5005 10.4332 49.4135L3.14311 42.1234C2.26889 41.2493 1.8428 40.1967 1.87678 38.9948L2.33334 22.8776C2.3501 22.2853 3.11475 21.6719 3.81143 21.6821C4.85745 21.6989 5.50186 23.1508 5.49307 25.4712L5.45967 34.2264C5.4544 35.6337 5.90815 36.8796 6.84858 38.0374L7.45045 38.7743C7.45456 38.7793 7.47073 38.7983 7.47495 38.8031C8.27663 39.7076 9.09495 40.4995 9.96143 41.338C10.3542 41.7181 10.7602 42.1111 11.1647 42.5155C11.2517 42.6027 11.355 42.6719 11.4688 42.719C11.5825 42.7661 11.7045 42.7903 11.8276 42.7902C11.9508 42.7903 12.0727 42.7662 12.1865 42.7191C12.3002 42.6719 12.4035 42.6028 12.4905 42.5156C12.5775 42.4286 12.6466 42.3252 12.6937 42.2115C12.7408 42.0978 12.7651 41.9759 12.7651 41.8528C12.7651 41.7297 12.7409 41.6077 12.6938 41.494C12.6467 41.3803 12.5776 41.2769 12.4906 41.1899C12.0753 40.7746 11.6635 40.376 11.2654 39.9907C10.436 39.1881 9.65229 38.4292 8.90686 37.5913C8.4353 36.9518 8.43577 36.3867 8.91084 35.9117C9.35745 35.4653 10.0757 35.4673 10.6021 35.9087C12.1068 37.6756 13.8873 39.1762 15.321 40.3844C15.8182 40.8036 16.2477 41.1655 16.6037 41.4865C17.4446 42.2442 17.7866 43.3323 17.7843 45.2419L17.7768 51.4953L10.7079 51.556L10.7078 50.0763ZM20.6236 56.0852C20.6077 56.1019 20.5886 56.1153 20.5674 56.1245C20.5462 56.1338 20.5234 56.1386 20.5003 56.1389L7.83049 56.2478C7.80739 56.2479 7.78448 56.2435 7.76314 56.2346C7.74179 56.2258 7.72245 56.2127 7.70627 56.1962C7.68952 56.1803 7.67614 56.1611 7.66692 56.1399C7.6577 56.1187 7.65283 56.0959 7.6526 56.0728L7.63163 53.6339C7.63104 53.5751 7.65928 53.5338 7.68307 53.5097C7.70686 53.4855 7.74764 53.4565 7.80635 53.456L20.4761 53.3471H20.4778C20.5357 53.3471 20.5765 53.3751 20.6004 53.3987C20.6247 53.4225 20.6536 53.4633 20.6541 53.5221L20.6751 55.961C20.6756 56.0198 20.6474 56.061 20.6236 56.0852ZM19.7523 54.4754C19.7899 54.568 19.8088 54.6672 19.8079 54.7671C19.807 54.8671 19.7863 54.9659 19.747 55.0578C19.7078 55.1497 19.6508 55.233 19.5792 55.3028C19.5077 55.3726 19.423 55.4275 19.3301 55.4644C19.2372 55.5014 19.138 55.5196 19.038 55.518C18.9381 55.5164 18.8395 55.4951 18.7478 55.4552C18.6561 55.4154 18.5733 55.3578 18.504 55.2857C18.4347 55.2137 18.3803 55.1287 18.344 55.0356C18.2713 54.8491 18.2753 54.6415 18.3551 54.458C18.4349 54.2745 18.584 54.13 18.77 54.0561C18.9559 53.9821 19.1635 53.9847 19.3476 54.0632C19.5316 54.1418 19.6771 54.29 19.7523 54.4754Z" fill="#1D1D1D"/>
</svg>
