<svg width="56" height="54" viewBox="0 0 56 54" fill="none" xmlns="http://www.w3.org/2000/svg">
<path d="M7.55394 42.7834C13.4494 46.8144 27.2455 43.9524 28.0476 51.7322C24.3981 46.5725 13.7301 50.926 7.55394 42.7834Z" fill="#FF8000"/>
<path d="M1.73871 34.036C9.43888 42.4206 22.3126 38.5911 27.6065 48.1849C19.7058 41.2919 7.87478 47.1369 1.73871 34.036Z" fill="#FF8000"/>
<path d="M0.0542955 22.3461C5.50858 36.8981 24.398 33.5523 28.4487 46.4919C20.5881 35.5275 -1.22906 41.4531 0.0542955 22.3461Z" fill="#FF8000"/>
<path d="M39.1166 50.7648C70.8798 36.4949 53.1935 -2.16255 24.1975 0.094827C57.204 1.42506 62.2973 38.9136 39.7583 49.3136C45.774 39.2764 27.4059 34.4794 36.6301 26.3771C30.1732 29.36 31.5222 32.988 32.3389 36.0515C35.467 42.7833 36.8707 51.3291 27.1252 53.9493C33.7425 54.4733 38.6754 50.7648 39.1166 50.7648Z" fill="#FF8000"/>
<path d="M30.6145 49.0717C32.0181 28.5942 1.17733 30.8515 4.62643 11.5429C-3.97774 23.3336 7.193 29.7228 16.8984 34.157C23.9168 37.3635 29.107 39.9647 30.6145 49.0717Z" fill="#FF8000"/>
<path d="M13.0884 12.5507C15.2541 17.3879 23.0349 17.3884 25.3209 16.9853C37.1271 14.2444 40.4261 18.5297 40.6002 21.0155C45.0919 22.2651 44.7046 24.2272 44.5308 25.329C43.5683 23.9101 41.0014 24.4426 39.2369 25.1278C31.9781 26.3774 29.9327 29.6824 30.2535 34.2372C30.5193 38.0103 33.8225 40.4453 32.1382 46.9755C32.5391 38.551 24.2383 32.8269 21.15 30.247C20.4441 26.6352 23.3154 22.9374 24.8394 21.5399C20.8292 24.1519 18.0618 22.4135 17.1793 21.2177C20.5881 22.6283 23.2755 19.2021 26.524 18.0331C25.401 18.1137 23.9566 18.7587 23.9566 18.7587C18.6228 20.9352 13.3688 19.0672 13.0884 12.5507ZM37.5523 20.9999C34.6252 20.8788 36.5088 19.0241 31.9371 19.7899C31.7896 19.8168 31.4236 19.8622 31.1353 19.83C31.3091 19.9778 31.922 20.1932 32.6597 20.1933C32.74 21.201 33.5178 22.8208 35.9879 21.2411C36.4154 21.2411 37.327 21.1931 37.5523 20.9999ZM32.98 20.1532C33.0602 20.0324 33.5171 20.0079 33.5816 20.2333C33.5415 20.4484 33.598 20.9676 34.1431 21.3222C32.9409 21.4428 32.8866 20.5431 32.98 20.1532Z" fill="#FF8000"/>
</svg>

